<?xml version="1.0" standalone="no"?>
<!DOCTYPE svg PUBLIC "-//W3C//DTD SVG 20010904//EN"
 "http://www.w3.org/TR/2001/REC-SVG-20010904/DTD/svg10.dtd">
<svg version="1.0" xmlns="http://www.w3.org/2000/svg"
 width="700.000000pt" height="700.000000pt" viewBox="0 0 700.000000 700.000000"
 preserveAspectRatio="xMidYMid meet">
<metadata>
Created by potrace 1.11, written by Peter Selinger 2001-2013
</metadata>
<g transform="translate(0.000000,700.000000) scale(0.100000,-0.100000)"
fill="#000000" stroke="none">
<path d="M3245 6904 c-405 -39 -713 -112 -1034 -244 -584 -240 -1077 -624
-1458 -1137 -123 -166 -213 -314 -313 -518 -171 -348 -270 -674 -327 -1075
-25 -177 -25 -681 0 -860 91 -649 331 -1210 733 -1715 113 -141 368 -396 509
-509 410 -327 861 -548 1355 -665 292 -69 445 -86 790 -86 298 0 365 5 595 46
568 100 1087 336 1550 706 142 113 397 367 509 508 437 549 686 1172 747 1870
14 165 6 551 -16 710 -79 584 -299 1132 -640 1591 -560 754 -1367 1229 -2310
1359 -114 16 -588 29 -690 19z m610 -117 c150 -34 268 -78 405 -148 456 -236
769 -652 872 -1162 20 -96 23 -141 22 -322 0 -178 -4 -226 -23 -315 -73 -344
-234 -636 -477 -870 -98 -94 -175 -155 -274 -217 -258 -161 -577 -252 -880
-253 -451 -1 -877 -182 -1191 -506 -229 -237 -370 -505 -440 -834 -19 -89 -23
-137 -23 -315 -1 -181 2 -226 22 -322 133 -657 625 -1161 1273 -1307 64 -14
131 -26 149 -26 19 0 31 -3 27 -6 -8 -9 -214 13 -365 37 -1092 179 -2041 914
-2492 1932 -141 320 -235 676 -270 1026 -13 133 -13 509 0 642 109 1100 750
2067 1722 2600 376 206 792 335 1253 388 44 5 193 8 330 6 224 -3 261 -6 360
-28z m-163 -4560 c269 -132 327 -485 116 -696 -98 -98 -244 -146 -374 -124
-240 41 -405 267 -365 498 29 167 134 290 296 348 38 13 74 17 151 15 93 -3
106 -6 176 -41z"/>
<path d="M3395 5586 c-167 -42 -296 -182 -326 -355 -33 -184 73 -381 248 -464
64 -30 74 -32 183 -32 108 0 119 2 180 31 179 85 284 279 250 466 -45 254
-289 415 -535 354z"/>
</g>
</svg>
